# xmcd CD database file
#
# Track frame offsets:
#	150
#	102769
#	134423
#
# Disc length: 2828 seconds
#
# Revision: 0
# Processed by: cddbd v1.5.2PL0 Copyright (c) Steve Scherf et al.
# Submitted via: CDex 1.51
#
DISCID=200b0a03
DTITLE=Graham Collier Music - Midnight Blue
DYEAR=1975
DGENRE=Jazz
TTITLE0=Midnight Blue
TTITLE1=Adam
TTITLE2=Cathedra
EXTD=YEAR: 1975
EXTT0=
EXTT1=
EXTT2=
PLAYORDER=
